<svg width="200" height="200" viewBox="0 0 200 200" fill="none" xmlns="http://www.w3.org/2000/svg">
<path d="M131.123 144.889L99.8158 112.566L67.4033 144.889H10L0 135.706L10 126.523H61.8785L86.9245 99.7098L61.8785 74.3655H30.3112L20.3112 90.8944H58.9155L67.7553 99.7098L58.9155 108.893L10 108.525L0 92.3636L20 56H68.8766L99.8158 87.2213L130.755 56H190L200 65.1827L190 74.3654H137.753L112.707 99.7098L139.227 126.523H190L200 135.706L190 144.889H170.902H131.123Z" fill="black"/>
<path d="M144.023 108.893L135.183 99.7098L144.023 90.527H190L200 99.7098L190 108.893H144.023Z" fill="black"/>
</svg>
